<svg id="Group_3" data-name="Group 3" xmlns="http://www.w3.org/2000/svg" xmlns:xlink="http://www.w3.org/1999/xlink" width="71.526" height="140" viewBox="0 0 71.526 140">
  <defs>
    <clipPath id="clip-path">
      <rect id="Rectangle_3" data-name="Rectangle 3" width="71.526" height="140" fill="none"/>
    </clipPath>
  </defs>
  <rect id="Rectangle_2" data-name="Rectangle 2" width="71.526" height="13.65" transform="translate(0 13.648)" fill="#fff"/>
  <g id="Group_2" data-name="Group 2">
    <g id="Group_1" data-name="Group 1" clip-path="url(#clip-path)">
      <path id="Path_1" data-name="Path 1" d="M71.526,193.314V78.874H0v114.44l35.76-19.867Zm-15.874-33.5,3.03-7.014h1.279l3.05,7.014H61.271l-.606-1.488H57.94l-.584,1.488ZM48.305,152.8h2.1l2.981,4.872h.02V152.8h1.545v7.014H52.93l-3.059-4.995h-.02v4.995H48.305Zm-1.629-14.786h2.639v11.974H46.677ZM41.892,152.8H44.6c1.435,0,2.645.5,2.645,2.13a1.8,1.8,0,0,1-1.514,1.921l1.781,2.963h-1.85L44.2,157.007h-.762v2.805H41.892Zm-2.653-11.42c0,2.181,5.514.777,5.514,4.973,0,2.673-2.15,3.94-4.619,3.94a5.689,5.689,0,0,1-4.025-1.5l1.879-2.065a2.93,2.93,0,0,0,2.3,1.133c.863,0,1.824-.4,1.824-1.251,0-2.2-5.614-1.015-5.614-5.006,0-2.555,2.217-3.891,4.566-3.891a5.413,5.413,0,0,1,3.672,1.252l-1.808,1.98a2.561,2.561,0,0,0-1.911-.8c-.746,0-1.777.339-1.777,1.238m-5.407,18.434,3.032-7.014h1.277l3.05,7.014H39.448l-.6-1.488H36.121l-.585,1.488Zm-4.3-9.521c-3.332,0-5.058-2.1-5.058-4.921v-7.357h2.639v7.255a2.416,2.416,0,1,0,4.821,0v-7.255h2.639v7.357c0,2.825-1.725,4.921-5.042,4.921M28.8,152.8h1.546v5.586h2.864v1.427H28.8Zm-8.032,7.014,3.03-7.014h1.277l3.052,7.014H26.377l-.6-1.488H23.051l-.586,1.488ZM14.389,152.8h2.318c2.26,0,4.151.961,4.151,3.526,0,2.268-1.854,3.488-3.942,3.488H14.389Zm-5.876,0h1.546v7.012H8.512Zm0-14.786h3.993l2.756,7.813H15.3l2.776-7.813h3.976v11.974H19.405V140.8h-.034l-3.145,9.183H14.213L11.185,140.8h-.034v9.183H8.512Zm23.321-51.59a36.285,36.285,0,0,0-4.049,2.087A61.275,61.275,0,0,0,8.512,106.466v-3.242a58.662,58.662,0,0,1,12.46-12.612,37.878,37.878,0,0,1,7.058-4.189Zm31.178,29.927A22.029,22.029,0,0,1,49,119.7,31.138,31.138,0,0,1,38.6,117.165c-.29,1.482-1.167,5.973-2.671,8.431-1.887,3.086-7.711,8.465-14.188,8.429-6.019-.031-10.531-3.855-13.232-6.982V119.3a103.97,103.97,0,0,1,6.208-9.72c1.826-1.966,4.665-6.246,8.569-9.132a31.986,31.986,0,0,1,9.833-5.338c4.775-1.826,10.393-2.387,12.644-1.966s5.869,1.268,7.3,2.809c1.727,1.852,3.621,5.8,2.106,8.708a6.494,6.494,0,0,1-4.3,3.324c-1.431.45-2.936.28-3.427-1.214-.353-1.078.561-2.811.561-2.811s-1.737,2.2-1.684,3.654c.081,2.3,3.149,3.119,4.816,2.833,3.1-.533,7.541-3.172,7.18-8.22-.817-11.509-11.931-11.27-15.473-10.788-5.176.7-9.872,1.814-13.347,3.595-11.382,5.834-15.348,12.721-17.034,15.107-.754,1.07-2.363,3.741-3.96,6.447V110.7C19.235,96.343,27.3,89.412,40.425,86.423H63.012Zm0,33.638H59.324L54.452,144.3v5.683H51.813V138.013h2.639v4.973l4.653-4.973h3.451l-5.328,5.563ZM29.09,117.013a11.07,11.07,0,0,0-.62-6.937c-1.068-2.284-3.822-5.1-6.82-2.227,3-.7,4.971.691,5.733,3.486.592,2.178.942,4.2-.628,6.2-.744.951-3.306,2.691-4.994,1.145-1.715-1.573-1.289-2.661-1.3-2.985-.221.438-2.028,3.09,1.624,5.059s6.44-1.224,7-3.743M16.847,154.226h-.91v4.159h.8c1.435,0,2.515-.544,2.515-2.14,0-1.376-1.1-2.02-2.406-2.02m7.541.612-.853,2.181h1.713Zm13.068,0-.851,2.181h1.713Zm6.99-.732H43.435v1.6h.91c.566,0,1.3-.022,1.3-.782,0-.7-.634-.813-1.2-.813m14.831.732-.851,2.181h1.713Z" transform="translate(0 -53.314)" fill="#fff"/>
    </g>
  </g>
</svg>
